<svg width="40" height="40" viewBox="0 0 40 40" fill="none" xmlns="http://www.w3.org/2000/svg">
  <rect width="40" height="40" rx="8" fill="#E6F7EC"/>
  <path d="M20 8C13.373 8 8 13.373 8 20C8 26.627 13.373 32 20 32C26.627 32 32 26.627 32 20C32 13.373 26.627 8 20 8ZM20 10C25.523 10 30 14.477 30 20C30 25.523 25.523 30 20 30C14.477 30 10 25.523 10 20C10 14.477 14.477 10 20 10Z" fill="#22C55E"/>
  <path d="M20 14C18.895 14 18 14.895 18 16C18 17.105 18.895 18 20 18C21.105 18 22 17.105 22 16C22 14.895 21.105 14 20 14Z" fill="#22C55E"/>
  <path d="M14 20C12.895 20 12 20.895 12 22C12 23.105 12.895 24 14 24C15.105 24 16 23.105 16 22C16 20.895 15.105 20 14 20Z" fill="#22C55E"/>
  <path d="M26 20C24.895 20 24 20.895 24 22C24 23.105 24.895 24 26 24C27.105 24 28 23.105 28 22C28 20.895 27.105 20 26 20Z" fill="#22C55E"/>
  <path d="M20 14V30" stroke="#22C55E" stroke-width="1.5"/>
  <path d="M14 22H26" stroke="#22C55E" stroke-width="1.5"/>
</svg> 